PathFileType	4	(X/Y/Z)	D:\TRACE\v60_Jaco2_6-2-23\JustBodyDRS_Motion3_2-platform.trc
DataRate	CameraRate	NumFrames	NumMarkers	Units	OrigDataRate	OrigDataStartFrame	OrigNumFrames
100.00	100.00	      60	5	mm	100.00	1	      7000
Frame#	Time	Left_Front			Right_Front			Left_Aft			Right_Aft			Post			
		X1	Y1	Z1	X2	Y2	Z2	X3	Y3	Z3	X4	Y4	Z4	X5	Y5	Z5	

1	0.000	-814.73883	128.41776	-611.85840	755.82532	125.52103	-588.74841	-745.82819	-74.25069	504.32648	668.56659	-92.27470	608.41882	-21.40354	1462.08435	-683.70447	
2	0.010	-814.49371	128.07925	-611.45807	755.81860	125.62227	-588.72052	-745.84174	-74.18961	504.34216	668.53943	-92.26272	608.41187	-21.12934	1461.90503	-683.48090	
3	0.020	-814.66876	128.34358	-611.84589	755.77942	125.56104	-588.77258	-745.79614	-74.19823	504.35080	668.54407	-92.23100	608.44342	-21.12507	1461.79028	-683.35907	
4	0.030	-814.65668	128.40836	-611.84192	755.77155	125.42852	-588.80841	-745.79260	-74.17791	504.38867	668.56140	-92.24477	608.47852	-21.05873	1461.81763	-683.37036	
5	0.040	-814.64441	128.34827	-611.88318	755.83319	125.55033	-588.76630	-745.73651	-74.12046	504.36044	668.56409	-92.24319	608.41364	-21.16452	1461.88586	-683.50507	
6	0.050	-814.33752	127.99311	-611.36890	755.82660	125.56626	-588.79688	-745.80383	-74.21805	504.33923	668.55731	-92.21767	608.43176	-21.34042	1461.98206	-683.78839	
7	0.060	-814.40894	128.03496	-611.38385	755.77039	125.43372	-588.80847	-745.85809	-74.26178	504.34045	668.53064	-92.27796	608.38019	-21.51197	1462.17126	-684.18262	
8	0.070	-814.69305	128.38876	-611.78522	755.79523	125.47880	-588.67230	-745.87103	-74.28322	504.39197	668.68982	-92.31361	608.56519	-21.58373	1462.25586	-684.33484	
9	0.080	-814.69482	128.45064	-611.74707	755.83636	125.65736	-588.64954	-745.79034	-74.25214	504.41150	668.72601	-92.32245	608.52747	-21.52022	1462.32532	-684.43909	
10	0.090	-814.71082	128.49995	-611.76434	755.91492	125.76717	-588.58746	-745.81384	-74.27652	504.38409	668.52472	-92.33913	608.48578	-21.59092	1462.43176	-684.46112	
11	0.100	-814.72021	128.46733	-611.83252	755.89630	125.67775	-588.67096	-745.80481	-74.24960	504.36261	668.50781	-92.34177	608.42273	-21.63706	1462.38831	-684.31262	
12	0.110	-814.66449	128.35027	-611.86719	755.86737	125.58291	-588.70258	-745.85309	-74.24872	504.37665	668.49719	-92.29871	608.40375	-21.62549	1462.26123	-684.07587	
13	0.120	-814.42444	128.03400	-611.39368	755.76300	125.49441	-588.72485	-745.86890	-74.27827	504.37228	668.42670	-92.49561	608.26288	-21.28701	1461.96399	-683.64124	
14	0.130	-814.62555	128.28703	-611.79633	755.73541	125.46594	-588.76068	-745.79675	-74.21860	504.39612	668.51825	-92.42474	608.30603	-21.13528	1461.85059	-683.49170	
15	0.140	-814.62537	128.33463	-611.83099	755.76868	125.48695	-588.80200	-745.74408	-74.16431	504.32816	668.49249	-92.49173	608.27356	-21.11613	1461.86987	-683.48633	
16	0.150	-814.70068	128.39763	-611.84906	755.81744	125.54688	-588.80090	-745.76556	-74.17231	504.32990	668.49591	-92.27850	608.42792	-21.20832	1461.97144	-683.57031	
17	0.160	-814.43097	128.12192	-611.39716	755.84521	125.57172	-588.76038	-745.82111	-74.20900	504.31601	668.47516	-92.26914	608.38672	-21.41817	1462.08337	-683.78845	
18	0.170	-814.70880	128.37848	-611.82922	755.79431	125.52292	-588.71130	-745.85321	-74.26071	504.34229	668.60358	-92.33727	608.46753	-21.48850	1462.14722	-683.98846	
19	0.180	-814.68976	128.41779	-611.73083	755.79871	125.56226	-588.64276	-745.88898	-74.28516	504.42212	668.50824	-92.29201	608.46033	-21.60500	1462.27686	-684.09448	
20	0.190	-814.60876	128.35905	-611.75745	755.81451	125.66007	-588.66846	-745.81677	-74.26624	504.39554	668.70337	-92.34978	608.50446	-21.58576	1462.31116	-684.12885	
21	0.200	-814.63153	128.37021	-611.75507	755.89874	125.69205	-588.66058	-745.80145	-74.21482	504.40921	668.53680	-92.29799	608.45587	-21.54485	1462.30811	-684.10669	
22	0.210	-814.70703	128.40692	-611.80713	755.89899	125.66708	-588.67664	-745.78015	-74.22115	504.36374	668.64258	-92.33921	608.44592	-21.63573	1462.29297	-684.00970	
23	0.220	-814.66541	128.36244	-611.87134	755.78998	125.53741	-588.73224	-745.82666	-74.19257	504.38449	668.45593	-92.29825	608.40033	-21.50227	1462.13794	-683.80554	
24	0.230	-814.66858	128.31790	-611.81036	755.75201	125.46015	-588.75336	-745.83606	-74.24564	504.35315	668.50745	-92.26214	608.41748	-21.26886	1461.95691	-683.60394	
25	0.240	-814.66748	128.31763	-611.81952	755.73236	125.42499	-588.77264	-745.85272	-74.20879	504.37186	668.52765	-92.24316	608.44531	-21.16961	1461.87207	-683.61780	
26	0.250	-814.61597	128.26210	-611.86005	755.79749	125.51643	-588.77814	-745.79395	-74.16851	504.35150	668.63690	-92.36821	608.26086	-21.24932	1461.97168	-683.76630	
27	0.260	-814.69244	128.36433	-611.83075	755.86615	125.58910	-588.74426	-745.80115	-74.18181	504.37897	668.64294	-92.36118	608.28687	-21.50164	1462.15808	-684.02490	
28	0.270	-814.63129	128.34602	-611.88049	755.84247	125.61131	-588.72919	-745.78345	-74.26062	504.34506	668.57037	-92.42707	608.27991	-21.53551	1462.22803	-684.15991	
29	0.280	-814.66992	128.39232	-611.77930	755.77112	125.59579	-588.72119	-745.85187	-74.28297	504.39853	668.59515	-92.43556	608.29840	-21.62364	1462.33899	-684.20551	
30	0.290	-814.68134	128.43567	-611.78510	755.77930	125.72999	-588.65771	-745.86426	-74.29557	504.38916	668.60907	-92.55582	608.30792	-21.57008	1462.25635	-684.14941	
31	0.300	-814.74512	128.50591	-611.79462	755.82642	125.75648	-588.64960	-745.81195	-74.19774	504.40302	668.58331	-92.45279	608.26569	-21.53508	1462.25415	-684.07709	
32	0.310	-814.71381	128.47499	-611.82660	755.86554	125.66814	-588.68127	-745.76373	-74.14452	504.38895	668.77283	-92.49533	608.29608	-21.48560	1462.23767	-683.93250	
33	0.320	-814.72235	128.39249	-611.83679	755.86475	125.57777	-588.69873	-745.81543	-74.20062	504.38773	668.60968	-92.44354	608.22607	-21.42497	1462.18921	-683.76233	
34	0.330	-814.45428	127.98516	-611.45923	755.77661	125.56538	-588.78497	-745.79053	-74.20834	504.40451	668.57123	-92.39078	608.30682	-21.28967	1462.03613	-683.66656	
35	0.340	-814.48706	128.09023	-611.51306	755.73370	125.41415	-588.72791	-745.85706	-74.18267	504.41550	668.60193	-92.42241	608.21075	-21.18731	1461.88293	-683.53662	
36	0.350	-814.41339	128.05812	-611.38861	755.74640	125.36617	-588.73651	-745.88025	-74.18651	504.44629	668.62048	-92.37611	608.30872	-21.27014	1461.94080	-683.65576	
37	0.360	-814.67877	128.35202	-611.86725	755.86072	125.65003	-588.71301	-745.81268	-74.07195	504.40460	668.57568	-92.49026	608.21356	-21.31902	1462.06506	-683.82166	
38	0.370	-814.74371	128.44373	-611.88184	755.89368	125.73432	-588.69397	-745.81274	-74.05668	504.37372	668.55280	-92.37254	608.31830	-21.40463	1462.14880	-684.01245	
39	0.380	-814.69739	128.37173	-611.90326	755.82001	125.59748	-588.72888	-745.85046	-74.06395	504.34686	668.70758	-92.42169	608.35040	-21.58670	1462.19104	-684.10846	
40	0.390	-814.47919	128.11360	-611.38885	755.75800	125.48821	-588.70087	-745.96710	-74.09133	504.40323	668.78003	-92.53352	608.24927	-21.58221	1462.20398	-684.11621	
41	0.400	-814.73242	128.35953	-611.83563	755.77588	125.50929	-588.63544	-745.99445	-74.14236	504.38828	668.75574	-92.48218	608.31165	-21.46084	1462.15051	-684.12366	
42	0.410	-814.73108	128.42476	-611.81403	755.82159	125.67802	-588.66089	-745.93201	-74.05636	504.41092	668.55402	-92.48972	608.23956	-21.49326	1462.16431	-684.07758	
43	0.420	-814.69171	128.37305	-611.86414	755.91370	125.67083	-588.67200	-745.85968	-74.00609	504.35062	668.62366	-92.44022	608.20453	-21.50705	1462.20142	-684.05035	
44	0.430	-814.71796	128.35266	-611.87756	755.87152	125.61086	-588.71039	-745.88275	-73.97711	504.31927	668.77856	-92.48735	608.23303	-21.55294	1462.21985	-683.99042	
45	0.440	-814.70129	128.29077	-611.86920	755.79755	125.58061	-588.75391	-745.93555	-73.95640	504.35980	668.58447	-92.36352	608.30707	-21.45330	1462.08508	-684.02332	
46	0.450	-814.69781	128.31580	-611.85803	755.74469	125.50417	-588.71051	-745.98773	-73.96586	504.37723	668.61182	-92.43696	608.23645	-21.33346	1461.97290	-683.94482	
47	0.460	-814.69122	128.26897	-611.81000	755.74707	125.44138	-588.72351	-746.03821	-73.94711	504.48679	668.64673	-92.39639	608.23547	-21.36796	1462.00952	-684.05188	
48	0.470	-814.69781	128.32796	-611.85260	755.79242	125.58351	-588.80072	-746.04126	-73.86557	504.49570	668.60809	-92.37622	608.29535	-21.47255	1462.12988	-684.20721	
49	0.480	-814.71710	128.38474	-611.90637	755.90631	125.68194	-588.66479	-745.83795	-74.01856	504.34937	668.58075	-92.39516	608.26245	-21.52528	1462.18494	-684.28186	
50	0.490	-814.40497	128.08463	-611.35846	755.84137	125.67406	-588.72058	-745.84607	-74.08986	504.36850	668.51459	-92.42568	608.27716	-21.65195	1462.25952	-684.33478	
51	0.500	-814.67755	128.35231	-611.86145	755.78308	125.56710	-588.72418	-745.90192	-74.14700	504.42105	668.55389	-92.42994	608.28088	-21.51065	1462.19934	-684.27264	
52	0.510	-814.66919	128.36005	-611.79675	755.75995	125.53080	-588.67249	-745.90686	-74.18977	504.42935	668.69348	-92.38967	608.25214	-21.42188	1462.07324	-684.07355	
53	0.520	-814.66833	128.32620	-611.84332	755.83820	125.60426	-588.67798	-745.86414	-74.11361	504.38828	668.62085	-92.38510	608.27728	-21.36607	1462.04919	-683.89868	
54	0.530	-814.74634	128.40555	-611.85535	755.86993	125.66618	-588.65436	-745.86084	-74.06973	504.35452	668.56378	-92.40515	608.26147	-21.45045	1462.09851	-683.86151	
55	0.540	-814.74622	128.40883	-611.91144	755.88232	125.65012	-588.70166	-745.82074	-74.02149	504.36188	668.51843	-92.38107	608.25659	-21.30183	1462.11511	-683.85596	
56	0.550	-814.66693	128.36458	-611.87268	755.80505	125.61917	-588.73724	-745.85193	-74.07420	504.37820	668.65436	-92.35727	608.28918	-21.44116	1462.09558	-683.76013	
57	0.560	-814.65643	128.28577	-611.88330	755.75787	125.50095	-588.74268	-745.87189	-74.13508	504.40686	668.59302	-92.40572	608.23779	-21.38147	1462.10559	-683.74670	
58	0.570	-814.67975	128.28607	-611.83221	755.75366	125.49460	-588.75354	-745.83740	-74.14403	504.41873	668.59943	-92.39037	608.29370	-21.34521	1462.12292	-683.92365	
59	0.580	-814.65460	128.30321	-611.82239	755.82788	125.61395	-588.72412	-745.86835	-74.14216	504.39706	668.66260	-92.40144	608.26465	-21.51108	1462.26709	-684.15692	
60	0.590	-814.69263	128.37080	-611.85205	755.86993	125.69551	-588.63098	-745.83533	-74.08141	504.35516	668.58209	-92.46728	608.22150	-21.50889	1462.36365	-684.19861	
